:SAMPLES-PER-SECOND 30
:FULLY-SPECIFIED
:DEGREES
145
root  -69.0842 40.3951 10.8735 174.925 18.2024 178.147
RightUpLeg  -13.9517 -40.3135 -2.74049
RightLeg  19.5109 -6.41453 -2.81271
RightFoot  -7.07611 0.0761224 -3.32478
RightToes  4.01633e-009 0 -3.6325e-017
Spine  15.9212 0.0311392 -4.10189
Spine1  13.2953 0.231634 -3.17822
HEad  -5.48528 -13.832 8.38736
LeftShoulder1  -0.0190128 3.56145 -28.5447
LeftArm  -8.93407 8.0508 -33.4623
LeftForeArm  82.3142 -79.6506 -87.6839
LeftHand  0.048658 0.150326 -1.10477
RightShoulder  -0.359378 -4.58004 26.3329
RightArm  -9.53142 -11.0592 39.0822
RightForeArm  81.1578 78.4339 105.33
RightHand  -0.141095 0.783906 -2.76457
LeftUpLeg  4.498 9.99993 -0.868724
LeftLeg  12.2989 33.5028 2.90266
LeftFoot  -9.48056 0.0506477 0.38505
LeftToes  -1.95724e-009 9.62483e-011 3.51777e-011
146
root  -68.9654 40.4474 10.5225 174.95 23.6291 178.309
RightUpLeg  -11.1146 -40.2706 -2.65366
RightLeg  16.0208 -10.4322 -2.92773
RightFoot  -6.92254 0.0873384 -3.4566
RightToes  4.01633e-009 0 -3.6325e-017
Spine  14.341 -0.184725 -3.853
Spine1  13.6713 -0.187674 -2.30771
HEad  -5.16986 -14.0096 8.90623
LeftShoulder1  0.00198215 3.49785 -28.063
LeftArm  -9.58005 8.78178 -34.1986
LeftForeArm  81.874 -79.6663 -86.7067
LeftHand  0.060193 -0.0726086 -1.28339
RightShoulder  -0.475329 -4.90264 27.1251
RightArm  -9.17007 -11.0486 38.8522
RightForeArm  82.3003 78.3219 106.941
RightHand  -0.160866 1.03526 -3.01321
LeftUpLeg  6.08763 10.2953 -0.631455
LeftLeg  11.0625 38.3772 2.70361
LeftFoot  -9.18083 0.0603543 -0.268651
LeftToes  -1.95724e-009 9.62483e-011 3.51777e-011
147
root  -68.7638 40.4857 10.1464 175.471 28.9747 178.707
RightUpLeg  -7.41557 -31.7238 -3.8217
RightLeg  12.1078 -20.3564 -0.779797
RightFoot  -5.83965 0.11676 -3.30237
RightToes  4.01633e-009 0 -3.6325e-017
Spine  12.7621 -0.324447 -3.30127
Spine1  13.999 -0.598734 -1.0611
HEad  -5.1194 -14.103 8.47572
LeftShoulder1  -0.0478074 3.64206 -28.444
LeftArm  -9.19207 9.16453 -33.5007
LeftForeArm  83.3639 -79.6644 -88.5576
LeftHand  0.0482784 -0.0554921 -1.03235
RightShoulder  -0.564329 -5.17156 27.0605
RightArm  -9.26691 -11.482 39.1035
RightForeArm  85.7135 78.1383 109.914
RightHand  -0.18632 0.990595 -3.50203
LeftUpLeg  6.96162 10.6109 -0.197109
LeftLeg  10.8415 43.0085 2.89743
LeftFoot  -8.95858 0.07727 -1.13842
LeftToes  -1.95724e-009 9.62483e-011 3.51777e-011
148
root  -68.4607 40.5066 9.74388 176.474 33.7021 179.793
RightUpLeg  -5.19215 -22.3334 -3.81063
RightLeg  8.81705 -28.3125 2.57404
RightFoot  -4.38809 0.128815 -2.53671
RightToes  4.01633e-009 0 -3.6325e-017
Spine  11.542 -0.698431 -1.7489
Spine1  13.9486 -1.08604 -0.148037
HEad  -4.95743 -14.1757 7.74505
LeftShoulder1  -0.0530205 3.65645 -28.6284
LeftArm  -8.7202 9.43277 -32.941
LeftForeArm  83.3138 -79.6653 -88.4715
LeftHand  0.0435811 0.101863 -0.977192
RightShoulder  -0.427961 -4.77258 26.8073
RightArm  -9.87629 -13.48 39.5224
RightForeArm  92.2685 77.7217 115.393
RightHand  -0.165743 0.358952 -3.39419
LeftUpLeg  7.42311 11.3974 1.17936
LeftLeg  12.0619 46.219 3.58445
LeftFoot  -9.22169 0.0987118 -2.34124
LeftToes  -1.95724e-009 9.62483e-011 3.51777e-011
149
root  -68.1041 40.4924 9.33952 177.604 38.5567 -178.955
RightUpLeg  -4.88793 -17.6659 -2.35146
RightLeg  7.39124 -27.7812 4.04849
RightFoot  -3.15989 0.232062 -3.54595
RightToes  4.01633e-009 0 -3.6325e-017
Spine  10.6692 -0.966708 0.104283
Spine1  13.7173 -1.36563 0.487133
HEad  -5.10216 -13.8768 6.60748
LeftShoulder1  0.0032113 3.4943 -28.7158
LeftArm  -8.88008 9.80269 -33.0197
LeftForeArm  82.0158 -79.659 -87.0994
LeftHand  0.02387 0.606438 -0.663988
RightShoulder  -0.452316 -4.84578 26.8113
RightArm  -9.69862 -14.4739 39.4036
RightForeArm  95.4914 77.4268 118.293
RightHand  -0.202706 0.878812 -3.88676
LeftUpLeg  7.91499 15.1925 3.47868
LeftLeg  14.3416 45.0415 4.52744
LeftFoot  -9.7667 0.109583 -3.84554
LeftToes  -1.95724e-009 9.62483e-011 3.51777e-011
150
root  -67.6433 40.4259 8.96512 178.273 43.9414 -178.524
RightUpLeg  -5.73015 -15.5738 -0.685131
RightLeg  8.82664 -24.614 2.67711
RightFoot  -4.12968 0.167873 -3.11457
RightToes  4.01633e-009 0 -3.6325e-017
Spine  9.72061 -0.688346 1.18366
Spine1  13.7867 -1.07787 0.959376
HEad  -5.14718 -13.5923 6.35404
LeftShoulder1  0.0782398 3.27728 -28.3679
LeftArm  -8.8241 10.0368 -33.2455
LeftForeArm  81.077 -79.6435 -86.3231
LeftHand  -0.00067396 0.827223 -0.09849
RightShoulder  -0.480783 -4.92165 27.049
RightArm  -9.47656 -14.9748 38.9646
RightForeArm  95.995 77.3339 119
RightHand  -0.158207 -0.512697 -3.68736
LeftUpLeg  8.46609 27.4178 6.76936
LeftLeg  17.8348 33.5388 6.74502
LeftFoot  -9.92622 0.15968 -7.95515
LeftToes  -1.95724e-009 9.62483e-011 3.51777e-011
151
root  -67.1247 40.3393 8.60109 178.27 48.8792 -178.248
RightUpLeg  -5.82889 -13.5292 0.354178
RightLeg  10.5064 -21.679 1.73497
RightFoot  -4.85729 0.180219 -3.76584
RightToes  4.01633e-009 0 -3.6325e-017
Spine  9.21962 -0.786853 2.35441
Spine1  14.1216 -1.00428 1.00259
HEad  -5.0803 -12.784 5.85037
LeftShoulder1  0.0867454 3.25155 -28.3179
LeftArm  -9.039 10.0688 -32.8395
LeftForeArm  80.7712 -79.6452 -85.8539
LeftHand  0.0209596 0.669125 -0.616287
RightShoulder  -0.513835 -5.0206 27.0587
RightArm  -8.97504 -14.6653 39.1665
RightForeArm  94.3639 77.5877 116.929
RightHand  -0.128373 -0.623529 -2.94611
LeftUpLeg  9.11776 39.9363 10.5828
LeftLeg  22.7032 20.0989 9.82146
LeftFoot  -8.91563 0.324083 -12.2145
LeftToes  -1.95724e-009 9.62483e-011 3.51777e-011
152
root  -66.5748 40.1982 8.24067 178.32 52.9724 -177.47
RightUpLeg  -4.98618 -11.9239 0.963376
RightLeg  11.7641 -19.3765 1.79438
RightFoot  -6.29017 0.125186 -3.7744
RightToes  4.01633e-009 0 -3.6325e-017
Spine  9.40034 -1.15927 3.5071
Spine1  14.1089 -1.33764 1.69455
HEad  -4.83529 -12.0702 4.70008
LeftShoulder1  0.00231853 3.49759 -28.8172
LeftArm  -8.89204 9.70632 -32.1299
LeftForeArm  79.1019 -79.6215 -84.0748
LeftHand  0.0390404 0.78975 -1.10582
RightShoulder  -0.499758 -5.00577 26.4525
RightArm  -8.42345 -14.455 39.8918
RightForeArm  91.1521 77.7618 114.756
RightHand  -0.224876 0.36341 -4.56399
LeftUpLeg  6.66845 36.7864 11.7969
LeftLeg  32.1406 18.9513 12.7544
LeftFoot  -5.32407 0.64544 -12.3688
LeftToes  -1.95724e-009 9.62483e-011 3.51777e-011
153
root  -66.0498 40.0718 7.88727 178.724 56.6856 -176.453
RightUpLeg  -4.18756 -11.1799 1.54941
RightLeg  12.9994 -16.811 1.83443
RightFoot  -7.78964 0.0428839 -3.08961
RightToes  4.01633e-009 0 -3.6325e-017
Spine  9.7304 -1.57564 5.22343
Spine1  13.9756 -1.42582 1.62495
HEad  -5.2918 -10.8836 3.35527
LeftShoulder1  0.0192214 3.44917 -29.038
LeftArm  -9.02078 9.14133 -32.064
LeftForeArm  75.8828 -79.5483 -80.6394
LeftHand  0.038737 0.81225 -1.10889
RightShoulder  -0.457051 -4.88301 26.2224
RightArm  -8.62235 -14.5569 40.0875
RightForeArm  93.8674 77.8554 114.964
RightHand  -0.124201 -0.588327 -3.02704
LeftUpLeg  2.72634 32.0209 11.69
LeftLeg  41.4651 16.174 15.1195
LeftFoot  1.62093 0.731251 -6.56699
LeftToes  -1.95724e-009 9.62483e-011 3.51777e-011
154
root  -65.5575 39.8966 7.52859 179.752 60.2399 -174.967
RightUpLeg  -4.15305 -11.0296 2.36047
RightLeg  15.3069 -13.6627 1.51065
RightFoot  -9.39372 -0.0168902 -2.75549
RightToes  4.01633e-009 0 -3.6325e-017
Spine  9.96901 -2.00221 7.42837
Spine1  14.1182 -1.34238 1.36737
HEad  -6.20795 -10.0047 2.66133
LeftShoulder1  0.0128008 3.46743 -29.0063
LeftArm  -9.22233 8.47589 -32.6356
LeftForeArm  72.3361 -79.4228 -77.0162
LeftHand  0.041536 0.698197 -1.14206
RightShoulder  -0.329237 -4.51476 25.4899
RightArm  -8.71289 -14.7097 40.9569
RightForeArm  92.2249 77.7681 115.048
RightHand  -0.187113 -1.09372 -4.92257
LeftUpLeg  -0.917046 26.9227 11.3193
LeftLeg  48.0374 10.3871 12.4101
LeftFoot  6.06484 0.422268 -2.8745
LeftToes  -1.95724e-009 9.62483e-011 3.51777e-011
155
root  -65.0298 39.8744 7.13111 179.361 63.0705 -174.861
RightUpLeg  -2.99441 -10.0264 2.35012
RightLeg  15.9668 -11.8523 1.0984
RightFoot  -10.1494 -0.0450433 -2.25596
RightToes  4.01633e-009 0 -3.6325e-017
Spine  10.5356 -2.38085 8.34844
Spine1  14.0906 -1.40442 1.3434
HEad  -7.15578 -9.84497 2.4693
LeftShoulder1  0.0780129 3.28134 -28.9516
LeftArm  -9.31581 7.9978 -33.3663
LeftForeArm  69.6248 -79.2947 -74.125
LeftHand  0.0587339 0.914056 -1.66495
RightShoulder  -0.334301 -4.52239 25.6976
RightArm  -9.06867 -14.422 40.8586
RightForeArm  91.661 77.6768 115.508
RightHand  -0.226849 -0.544633 -5.45596
LeftUpLeg  -3.50622 20.8945 9.70091
LeftLeg  51.2373 1.65078 2.70865
LeftFoot  4.57693 0.370144 -2.88091
LeftToes  -1.95724e-009 9.62483e-011 3.51777e-011
